<svg width="151" height="55" viewBox="0 0 151 55" fill="none" xmlns="http://www.w3.org/2000/svg">
<title>Lru Note</title>
<path d="M12.9167 2.08333H5.41669C3.57575 2.08333 2.08337 3.57571 2.08337 5.41665V12.0833C2.08337 13.9242 3.57575 15.4166 5.41669 15.4166H12.9167C14.7576 15.4166 16.25 13.9242 16.25 12.0833V5.41665C16.25 3.57571 14.7576 2.08333 12.9167 2.08333Z" stroke="currentColor" stroke-width="4.16665"/>
<path d="M12.9167 20.4166H5.41669C3.57575 20.4166 2.08337 21.909 2.08337 23.7499V30.4165C2.08337 32.2575 3.57575 33.7499 5.41669 33.7499H12.9167C14.7576 33.7499 16.25 32.2575 16.25 30.4165V23.7499C16.25 21.909 14.7576 20.4166 12.9167 20.4166Z" stroke="currentColor" stroke-width="4.16665"/>
<path d="M35.4166 38.7498H5.41669C3.57575 38.7498 2.08337 40.2422 2.08337 42.0832V48.7498C2.08337 50.5907 3.57575 52.0831 5.41669 52.0831H35.4166C37.2575 52.0831 38.7499 50.5907 38.7499 48.7498V42.0832C38.7499 40.2422 37.2575 38.7498 35.4166 38.7498Z" stroke="currentColor" stroke-width="4.16665"/>
<path d="M57.3634 29.0833V0.243328H63.1234V23.2833H86.1634V29.0833H57.3634ZM111.135 29.0833L102.615 18.9233H110.175L117.215 27.2833V29.0833H111.135ZM88.4952 29.0833V0.323327H111.495C112.562 0.323327 113.522 0.589993 114.375 1.12333C115.255 1.62999 115.962 2.32333 116.495 3.20333C117.029 4.08333 117.295 5.04333 117.295 6.08333V13.6833C117.295 14.7233 117.029 15.6833 116.495 16.5633C115.962 17.4167 115.255 18.11 114.375 18.6433C113.522 19.15 112.562 19.4033 111.495 19.4033L94.2552 19.4433V29.0833H88.4952ZM94.4952 13.6033H111.215C111.295 13.6033 111.349 13.59 111.375 13.5633C111.429 13.51 111.455 13.4567 111.455 13.4033V6.32333C111.455 6.24333 111.429 6.18999 111.375 6.16333C111.349 6.10999 111.295 6.08333 111.215 6.08333H94.4952C94.4152 6.08333 94.3486 6.10999 94.2952 6.16333C94.2686 6.18999 94.2552 6.24333 94.2552 6.32333V13.4033C94.2552 13.4567 94.2686 13.51 94.2952 13.5633C94.3486 13.59 94.4152 13.6033 94.4952 13.6033ZM127.183 29.0833C126.116 29.0833 125.143 28.83 124.263 28.3233C123.41 27.79 122.716 27.0967 122.183 26.2433C121.676 25.3633 121.423 24.39 121.423 23.3233V0.283327H127.183V23.0433C127.183 23.1233 127.196 23.19 127.223 23.2433C127.276 23.27 127.343 23.2833 127.423 23.2833H144.143C144.223 23.2833 144.276 23.27 144.303 23.2433C144.356 23.19 144.383 23.1233 144.383 23.0433V0.283327H150.223V23.3233C150.223 24.39 149.956 25.3633 149.423 26.2433C148.89 27.0967 148.183 27.79 147.303 28.3233C146.45 28.83 145.503 29.0833 144.463 29.0833H127.183Z" fill="currentColor"/>
<path d="M56.4334 54.0833V39.5833H68.1834C68.7334 39.5833 69.2334 39.725 69.6834 40.0083C70.15 40.275 70.5167 40.6417 70.7834 41.1083C71.0667 41.5583 71.2084 42.0583 71.2084 42.6083V54.0833H69.1584V42.6083C69.1584 42.3417 69.0584 42.1167 68.8584 41.9333C68.675 41.7333 68.45 41.6333 68.1834 41.6333H59.4834C59.2167 41.6333 58.9834 41.7333 58.7834 41.9333C58.5834 42.1167 58.4834 42.3417 58.4834 42.6083V54.0833H56.4334ZM88.1744 54.0833C87.6244 54.0833 87.1161 53.95 86.6494 53.6833C86.1994 53.4 85.8327 53.0333 85.5494 52.5833C85.2827 52.1167 85.1494 51.6083 85.1494 51.0583V42.6083C85.1494 42.0583 85.2827 41.5583 85.5494 41.1083C85.8327 40.6417 86.1994 40.275 86.6494 40.0083C87.1161 39.725 87.6244 39.5833 88.1744 39.5833H96.8744C97.4411 39.5833 97.9494 39.725 98.3994 40.0083C98.8661 40.275 99.2327 40.6417 99.4994 41.1083C99.7827 41.5583 99.9244 42.0583 99.9244 42.6083V51.0583C99.9244 51.6083 99.7827 52.1167 99.4994 52.5833C99.2327 53.0333 98.8661 53.4 98.3994 53.6833C97.9494 53.95 97.4411 54.0833 96.8744 54.0833H88.1744ZM88.1744 52.0333H96.8744C97.1411 52.0333 97.3661 51.9417 97.5494 51.7583C97.7494 51.5583 97.8494 51.325 97.8494 51.0583V42.6083C97.8494 42.3417 97.7494 42.1167 97.5494 41.9333C97.3661 41.7333 97.1411 41.6333 96.8744 41.6333H88.1744C87.9077 41.6333 87.6744 41.7333 87.4744 41.9333C87.2911 42.1167 87.1994 42.3417 87.1994 42.6083V51.0583C87.1994 51.325 87.2911 51.5583 87.4744 51.7583C87.6744 51.9417 87.9077 52.0333 88.1744 52.0333ZM116.698 54.0833C116.131 54.0833 115.615 53.95 115.148 53.6833C114.698 53.4 114.34 53.0333 114.073 52.5833C113.806 52.1167 113.673 51.6083 113.673 51.0583V34.8333H115.723V39.5833H121.998V41.6333H115.723V51.0583C115.723 51.325 115.815 51.5583 115.998 51.7583C116.198 51.9417 116.431 52.0333 116.698 52.0333H121.998V54.0833H116.698ZM138.652 54.0833C138.102 54.0833 137.594 53.95 137.127 53.6833C136.677 53.4 136.31 53.0333 136.027 52.5833C135.76 52.1167 135.627 51.6083 135.627 51.0583V42.6083C135.627 42.0583 135.76 41.5583 136.027 41.1083C136.31 40.6417 136.677 40.275 137.127 40.0083C137.594 39.725 138.102 39.5833 138.652 39.5833H147.352C147.919 39.5833 148.427 39.725 148.877 40.0083C149.344 40.275 149.71 40.6417 149.977 41.1083C150.26 41.5583 150.402 42.0583 150.402 42.6083V47.8583H137.677V51.0583C137.677 51.325 137.769 51.5583 137.952 51.7583C138.152 51.9417 138.385 52.0333 138.652 52.0333H150.402V54.0833H138.652ZM137.677 45.8083H148.327V42.6083C148.327 42.3417 148.227 42.1167 148.027 41.9333C147.844 41.7333 147.619 41.6333 147.352 41.6333H138.652C138.385 41.6333 138.152 41.7333 137.952 41.9333C137.769 42.1167 137.677 42.3417 137.677 42.6083V45.8083Z" fill="currentColor"/>
</svg>
